# Blender v2.93.4 OBJ File: 'door.blend'
# www.blender.org
mtllib door.mtl
o Cube
v -0.700000 2.600000 -1.000000
v -0.800000 0.000000 -1.000000
v -0.700000 2.600000 1.000000
v -0.800000 0.000000 1.000000
v -1.000000 2.800000 -1.000000
v -1.000000 0.000000 -1.000000
v -1.000000 2.800000 1.000000
v -1.000000 0.000000 1.000000
v -0.800000 3.000000 -1.000000
v -0.800000 3.000000 1.000000
v -0.900000 2.900000 -1.000000
v -0.900000 2.900000 1.000000
v 0.700000 2.600000 -1.000000
v 0.800000 0.000000 -1.000000
v 0.700000 2.600000 1.000000
v 0.800000 0.000000 1.000000
v 1.000000 2.800000 -1.000000
v 1.000000 0.000000 -1.000000
v 1.000000 2.800000 1.000000
v 1.000000 0.000000 1.000000
v 0.800000 3.000000 -1.000000
v 0.800000 3.000000 1.000000
v 0.900000 2.900000 -1.000000
v 0.900000 2.900000 1.000000
v 0.000000 2.800000 -1.000000
v 0.000000 2.800000 1.000000
v 0.000000 3.000000 -1.000000
v 0.000000 3.000000 1.000000
vt 0.625000 0.500000
vt 0.625000 0.250000
vt 0.625000 0.250000
vt 0.625000 0.500000
vt 0.375000 0.750000
vt 0.625000 0.750000
vt 0.625000 1.000000
vt 0.375000 1.000000
vt 0.375000 0.000000
vt 0.625000 0.000000
vt 0.375000 0.250000
vt 0.125000 0.500000
vt 0.375000 0.500000
vt 0.125000 0.750000
vt 0.875000 0.500000
vt 0.875000 0.750000
vt 0.625000 0.750000
vt 0.625000 1.000000
vt 0.625000 0.000000
vt 0.625000 0.500000
vt 0.625000 0.500000
vt 0.625000 0.750000
vt 0.625000 0.750000
vt 0.625000 0.500000
vt 0.625000 0.500000
vt 0.625000 0.250000
vt 0.625000 0.250000
vt 0.375000 0.750000
vt 0.375000 1.000000
vt 0.625000 1.000000
vt 0.625000 0.750000
vt 0.375000 0.000000
vt 0.375000 0.250000
vt 0.625000 0.000000
vt 0.125000 0.500000
vt 0.125000 0.750000
vt 0.375000 0.500000
vt 0.625000 0.750000
vt 0.875000 0.750000
vt 0.875000 0.500000
vt 0.625000 1.000000
vt 0.625000 0.000000
vn 0.0000 0.0000 -1.0000
vn 0.0000 0.0000 1.0000
vn -1.0000 0.0000 0.0000
vn 0.0000 -1.0000 0.0000
vn 0.9993 -0.0384 0.0000
vn -0.7071 0.7071 0.0000
vn 0.0000 1.0000 0.0000
vn 0.2747 -0.9615 0.0000
vn 1.0000 0.0000 0.0000
vn -0.9993 -0.0384 0.0000
vn 0.7071 0.7071 0.0000
vn -0.2747 -0.9615 0.0000
usemtl Material
s off
f 1/1/1 5/2/1 11/3/1 9/4/1
f 4/5/2 3/6/2 7/7/2 8/8/2
f 8/9/3 7/10/3 5/2/3 6/11/3
f 6/12/4 2/13/4 4/5/4 8/14/4
f 2/13/5 1/1/5 3/6/5 4/5/5
f 6/11/1 5/2/1 1/1/1 2/13/1
f 9/4/6 11/15/6 12/16/6 10/17/6
f 7/7/2 3/6/2 10/17/2 12/18/2
f 5/2/6 7/10/6 12/19/6 11/3/6
f 1/1/1 9/4/1 27/20/1 25/21/1
f 9/4/7 10/17/7 28/22/7 27/20/7
f 3/6/8 1/1/8 25/21/8 26/23/8
f 10/17/2 3/6/2 26/23/2 28/22/2
f 13/24/1 21/25/1 23/26/1 17/27/1
f 16/28/2 20/29/2 19/30/2 15/31/2
f 20/32/9 18/33/9 17/27/9 19/34/9
f 18/35/4 20/36/4 16/28/4 14/37/4
f 14/37/10 16/28/10 15/31/10 13/24/10
f 18/33/1 14/37/1 13/24/1 17/27/1
f 21/25/11 22/38/11 24/39/11 23/40/11
f 19/30/2 24/41/2 22/38/2 15/31/2
f 17/27/11 23/26/11 24/42/11 19/34/11
f 13/24/1 25/21/1 27/20/1 21/25/1
f 26/23/3 28/22/3 27/20/3 25/21/3
f 21/25/7 27/20/7 28/22/7 22/38/7
f 15/31/12 26/23/12 25/21/12 13/24/12
f 22/38/2 28/22/2 26/23/2 15/31/2
